<!--?xml version="1.0" standalone="no"?-->
              <svg id="sw-js-blob-svg" viewBox="0 0 100 100" xmlns="http://www.w3.org/2000/svg" version="1.1">
                    <defs> 
                        <linearGradient id="sw-gradient" x1="0" x2="1" y1="1" y2="0">
                            <stop id="stop1" stop-color="rgba(214.053, 122.132, 78.627, 1)" offset="0%"></stop>
                            <stop id="stop2" stop-color="rgba(251, 168, 31, 1)" offset="100%"></stop>
                        </linearGradient>
                    </defs>
                <path fill="url(#sw-gradient)" d="M20.3,-27C25.3,-20.1,27.6,-12.7,30.3,-4.3C33.1,4.1,36.3,13.5,33.8,21C31.2,28.5,22.9,34.2,13.6,37.7C4.4,41.2,-5.8,42.5,-15.3,39.9C-24.7,37.3,-33.5,30.9,-38.7,22.2C-44,13.5,-45.6,2.6,-42.5,-6.2C-39.4,-14.9,-31.5,-21.5,-23.6,-28C-15.7,-34.5,-7.9,-40.8,-0.1,-40.7C7.7,-40.6,15.4,-34,20.3,-27Z" width="100%" height="100%" transform="translate(50 50)" stroke-width="0" style="transition: all 0.3s ease 0s;"></path>
              </svg>