<!--?xml version="1.0" standalone="no"?-->
              <svg id="sw-js-blob-svg" viewBox="0 0 100 100" xmlns="http://www.w3.org/2000/svg" version="1.1">
                    <defs> 
                        <linearGradient id="sw-gradient" x1="0" x2="1" y1="1" y2="0">
                            <stop id="stop1" stop-color="rgba(239, 175, 188, 1)" offset="0%"></stop>
                            <stop id="stop2" stop-color="rgba(121, 188, 207, 1)" offset="100%"></stop>
                        </linearGradient>
                    </defs>
                <path fill="url(#sw-gradient)" d="M20.5,-34.5C27,-31.7,33.2,-27.2,36.6,-21.2C40.1,-15.1,40.9,-7.6,39.2,-1C37.5,5.6,33.3,11.2,29.5,16.6C25.7,22.1,22.3,27.5,17.5,30.9C12.7,34.2,6.3,35.5,-0.5,36.3C-7.2,37,-14.5,37.3,-19.9,34.3C-25.2,31.3,-28.7,25,-33.3,18.7C-37.9,12.4,-43.5,6.2,-44,-0.3C-44.5,-6.8,-39.8,-13.5,-34.5,-18.6C-29.3,-23.7,-23.5,-27.2,-17.7,-30.5C-11.8,-33.7,-5.9,-36.7,0.5,-37.6C7,-38.6,13.9,-37.4,20.5,-34.5Z" width="100%" height="100%" transform="translate(50 50)" stroke-width="0" style="transition: all 0.3s ease 0s;" stroke="url(#sw-gradient)"></path>
              </svg>